<svg width="40" height="40" viewBox="0 0 40 40" fill="none" xmlns="http://www.w3.org/2000/svg">
<circle cx="20" cy="20" r="20" fill="#ED7C25"/>
<g filter="url(#filter0_d_913_291)">
<path d="M26.6274 12.416C28.3234 12.416 29.6514 12.928 30.6114 13.952C31.5874 14.976 32.0754 16.376 32.0754 18.152V26H27.3714V18.776C27.3714 18.056 27.1714 17.496 26.7714 17.096C26.3714 16.696 25.8274 16.496 25.1394 16.496C24.4514 16.496 23.9074 16.696 23.5074 17.096C23.1074 17.496 22.9074 18.056 22.9074 18.776V26H18.2034V18.776C18.2034 18.056 18.0034 17.496 17.6034 17.096C17.2194 16.696 16.6834 16.496 15.9954 16.496C15.2914 16.496 14.7394 16.696 14.3394 17.096C13.9394 17.496 13.7394 18.056 13.7394 18.776V26H9.03541V12.536H13.7394V14.312C14.1554 13.736 14.6914 13.28 15.3474 12.944C16.0194 12.592 16.7874 12.416 17.6514 12.416C18.6434 12.416 19.5234 12.632 20.2914 13.064C21.0754 13.496 21.6914 14.104 22.1394 14.888C22.6194 14.152 23.2514 13.56 24.0354 13.112C24.8194 12.648 25.6834 12.416 26.6274 12.416Z" fill="white"/>
</g>
<defs>
<filter id="filter0_d_913_291" x="5.0354" y="12.416" width="31.04" height="21.584" filterUnits="userSpaceOnUse" color-interpolation-filters="sRGB">
<feFlood flood-opacity="0" result="BackgroundImageFix"/>
<feColorMatrix in="SourceAlpha" type="matrix" values="0 0 0 0 0 0 0 0 0 0 0 0 0 0 0 0 0 0 127 0" result="hardAlpha"/>
<feOffset dy="4"/>
<feGaussianBlur stdDeviation="2"/>
<feComposite in2="hardAlpha" operator="out"/>
<feColorMatrix type="matrix" values="0 0 0 0 0 0 0 0 0 0 0 0 0 0 0 0 0 0 0.25 0"/>
<feBlend mode="normal" in2="BackgroundImageFix" result="effect1_dropShadow_913_291"/>
<feBlend mode="normal" in="SourceGraphic" in2="effect1_dropShadow_913_291" result="shape"/>
</filter>
</defs>
</svg>
