<svg width="182" height="53" viewBox="0 0 182 53" fill="none" xmlns="http://www.w3.org/2000/svg">
<path d="M35.9767 12.832C39.3687 12.832 42.0247 13.856 43.9447 15.904C45.8967 17.952 46.8727 20.752 46.8727 24.304V40H37.4647V25.552C37.4647 24.112 37.0647 22.992 36.2647 22.192C35.4647 21.392 34.3767 20.992 33.0007 20.992C31.6247 20.992 30.5367 21.392 29.7367 22.192C28.9367 22.992 28.5367 24.112 28.5367 25.552V40H19.1287V25.552C19.1287 24.112 18.7287 22.992 17.9287 22.192C17.1607 21.392 16.0887 20.992 14.7127 20.992C13.3047 20.992 12.2007 21.392 11.4007 22.192C10.6007 22.992 10.2007 24.112 10.2007 25.552V40H0.792691V13.072H10.2007V16.624C11.0327 15.472 12.1047 14.56 13.4167 13.888C14.7607 13.184 16.2967 12.832 18.0247 12.832C20.0087 12.832 21.7687 13.264 23.3047 14.128C24.8727 14.992 26.1047 16.208 27.0007 17.776C27.9607 16.304 29.2247 15.12 30.7927 14.224C32.3607 13.296 34.0887 12.832 35.9767 12.832ZM62.6351 40.336C59.9471 40.336 57.5311 39.776 55.3871 38.656C53.2751 37.536 51.6111 35.936 50.3951 33.856C49.1791 31.776 48.5711 29.328 48.5711 26.512C48.5711 23.728 49.1791 21.296 50.3951 19.216C51.6431 17.136 53.3231 15.536 55.4351 14.416C57.5791 13.296 59.9951 12.736 62.6831 12.736C65.3711 12.736 67.7711 13.296 69.8831 14.416C72.0271 15.536 73.7071 17.136 74.9231 19.216C76.1711 21.296 76.7951 23.728 76.7951 26.512C76.7951 29.296 76.1711 31.744 74.9231 33.856C73.7071 35.936 72.0271 37.536 69.8831 38.656C67.7391 39.776 65.3231 40.336 62.6351 40.336ZM62.6351 32.176C63.9471 32.176 65.0351 31.696 65.8991 30.736C66.7951 29.744 67.2431 28.336 67.2431 26.512C67.2431 24.688 66.7951 23.296 65.8991 22.336C65.0351 21.376 63.9631 20.896 62.6831 20.896C61.4031 20.896 60.3311 21.376 59.4671 22.336C58.6031 23.296 58.1711 24.688 58.1711 26.512C58.1711 28.368 58.5871 29.776 59.4191 30.736C60.2511 31.696 61.3231 32.176 62.6351 32.176ZM88.1107 16.816C88.8467 15.536 89.8867 14.544 91.2307 13.84C92.5747 13.104 94.1587 12.736 95.9827 12.736C98.1267 12.736 100.063 13.296 101.791 14.416C103.551 15.536 104.927 17.136 105.919 19.216C106.943 21.296 107.455 23.728 107.455 26.512C107.455 29.296 106.943 31.744 105.919 33.856C104.927 35.936 103.551 37.536 101.791 38.656C100.063 39.776 98.1267 40.336 95.9827 40.336C94.1587 40.336 92.5747 39.984 91.2307 39.28C89.8867 38.544 88.8467 37.536 88.1107 36.256V40H78.7027V4.48H88.1107V16.816ZM97.9027 26.512C97.9027 24.752 97.4227 23.392 96.4627 22.432C95.5347 21.44 94.3827 20.944 93.0067 20.944C91.6307 20.944 90.4627 21.44 89.5027 22.432C88.5747 23.424 88.1107 24.784 88.1107 26.512C88.1107 28.272 88.5747 29.648 89.5027 30.64C90.4627 31.632 91.6307 32.128 93.0067 32.128C94.3827 32.128 95.5347 31.632 96.4627 30.64C97.4227 29.616 97.9027 28.24 97.9027 26.512Z" fill="black"/>
<path d="M118.816 16.816C119.552 15.536 120.592 14.544 121.936 13.84C123.28 13.104 124.864 12.736 126.688 12.736C128.832 12.736 130.768 13.296 132.496 14.416C134.256 15.536 135.632 17.136 136.624 19.216C137.648 21.296 138.16 23.728 138.16 26.512C138.16 29.296 137.648 31.744 136.624 33.856C135.632 35.936 134.256 37.536 132.496 38.656C130.768 39.776 128.832 40.336 126.688 40.336C124.864 40.336 123.28 39.984 121.936 39.28C120.592 38.544 119.552 37.536 118.816 36.256V40H109.408V4.48H118.816V16.816ZM128.608 26.512C128.608 24.752 128.128 23.392 127.168 22.432C126.24 21.44 125.088 20.944 123.712 20.944C122.336 20.944 121.168 21.44 120.208 22.432C119.28 23.424 118.816 24.784 118.816 26.512C118.816 28.272 119.28 29.648 120.208 30.64C121.168 31.632 122.336 32.128 123.712 32.128C125.088 32.128 126.24 31.632 127.168 30.64C128.128 29.616 128.608 28.24 128.608 26.512ZM144.865 10.576C143.201 10.576 141.857 10.128 140.833 9.232C139.841 8.304 139.345 7.152 139.345 5.776C139.345 4.368 139.841 3.2 140.833 2.272C141.857 1.344 143.201 0.879997 144.865 0.879997C146.497 0.879997 147.809 1.344 148.801 2.272C149.825 3.2 150.337 4.368 150.337 5.776C150.337 7.152 149.825 8.304 148.801 9.232C147.809 10.128 146.497 10.576 144.865 10.576ZM149.521 13.072V40H140.113V13.072H149.521ZM162.366 16.816C163.102 15.568 164.142 14.576 165.486 13.84C166.83 13.104 168.414 12.736 170.238 12.736C172.382 12.736 174.318 13.296 176.046 14.416C177.806 15.536 179.182 17.136 180.174 19.216C181.198 21.296 181.71 23.728 181.71 26.512C181.71 29.296 181.198 31.744 180.174 33.856C179.182 35.936 177.806 37.536 176.046 38.656C174.318 39.776 172.382 40.336 170.238 40.336C168.414 40.336 166.83 39.968 165.486 39.232C164.174 38.496 163.134 37.504 162.366 36.256V52.864H152.958V13.072H162.366V16.816ZM172.158 26.512C172.158 24.752 171.678 23.392 170.718 22.432C169.79 21.44 168.638 20.944 167.262 20.944C165.886 20.944 164.718 21.44 163.758 22.432C162.83 23.424 162.366 24.784 162.366 26.512C162.366 28.272 162.83 29.648 163.758 30.64C164.718 31.632 165.886 32.128 167.262 32.128C168.638 32.128 169.79 31.632 170.718 30.64C171.678 29.616 172.158 28.24 172.158 26.512Z" fill="#ED7C25"/>
</svg>
